<svg width="126" height="60" viewBox="0 0 126 60" fill="none" xmlns="http://www.w3.org/2000/svg">
<g clip-path="url(#clip0_2192_1956)">
<path d="M0 0H126V60H0V0Z" fill="#FFDE00"/>
<path d="M30.708 39.1249H24.37V21.2019H30.708C36.39 21.2019 40.106 24.6989 40.106 30.1639C39.996 35.6279 36.281 39.1249 30.708 39.1249ZM31.036 15.8469H18.03V44.3699H31.035C40.323 44.3699 46.771 38.6869 46.771 30.0529C46.661 21.5289 40.323 15.8459 31.035 15.8459L31.036 15.8469ZM53.984 21.2019H60.323V44.4799H66.661V15.8469H53.984V21.2019ZM94.2 15.8469V21.2019H99.445V44.4799H106.876V15.8469H94.2ZM87.206 33.0049C91.14 29.2889 92.014 26.7749 92.014 24.0429C92.014 18.9069 87.752 15.6279 81.414 15.6279C76.278 15.6279 72.344 17.7039 70.158 20.8739L74.966 23.9339C76.387 21.9669 78.464 21.0919 80.868 21.0919C83.928 21.0919 85.458 22.4039 85.458 24.5899C85.458 26.0099 84.802 27.4309 82.288 29.8359L71.032 40.2179V44.4799H93.216V39.2349H80.65L87.206 33.0049Z" fill="#5A4F53"/>
</g>
<defs>
<clipPath id="clip0_2192_1956">
<rect width="126" height="60" fill="white"/>
</clipPath>
</defs>
</svg>
