<svg width="82" height="18" viewBox="0 0 82 18" fill="none" xmlns="http://www.w3.org/2000/svg">
<path fill-rule="evenodd" clip-rule="evenodd" d="M2.08424 2.78436L2.08382 2.78477C1.51559 3.34612 1.21981 4.06445 1.06899 5.08157C0.91688 6.1074 0.916243 7.40429 0.916243 9.10647C0.916243 10.8087 0.91688 12.1056 1.06899 13.1317C1.21982 14.1492 1.51562 14.8684 2.08403 15.4312C2.65096 15.9938 3.37663 16.2869 4.40387 16.4362C5.43989 16.5868 6.74971 16.5875 8.4688 16.5875C10.1879 16.5875 11.4977 16.5868 12.5341 16.4362C13.5617 16.2869 14.288 15.994 14.8564 15.4312C15.4248 14.8683 15.7206 14.1498 15.8714 13.1328C16.0236 12.107 16.0242 10.8101 16.0242 9.10647C16.0242 7.40289 16.0236 6.10596 15.8714 5.08017C15.7206 4.06312 15.4248 3.34461 14.8564 2.78176C14.288 2.22035 13.5624 1.92817 12.5352 1.77918C11.4992 1.62891 10.1893 1.62828 8.4688 1.62828C6.74825 1.62828 5.43847 1.62891 4.40282 1.77952C3.37601 1.92884 2.65121 2.22169 2.08424 2.78436ZM15.0406 2.59938C16.2847 3.83121 16.2847 5.71405 16.2847 9.10647C16.2847 12.4989 16.2847 14.3817 15.0406 15.6136C13.7965 16.8454 11.8921 16.8454 8.4688 16.8454C5.04546 16.8454 3.14108 16.8454 1.89984 15.6136C0.655762 14.3817 0.655762 12.4961 0.655762 9.10647C0.655762 5.71685 0.655762 3.83121 1.89984 2.60219C3.14108 1.37036 5.04262 1.37036 8.4688 1.37036C11.895 1.37036 13.7965 1.37036 15.0406 2.59938Z" fill="#1A1A1D"/>
<path d="M8.13965 13.9973C7.58791 13.5757 7.181 12.9468 7.04993 12.2142H5.27051V4.50802C6.2292 4.9849 6.91202 6.04235 6.99479 7.13432L7.26374 9.29759L7.13271 9.27686C6.84306 9.27686 6.59474 9.54641 6.59474 9.81595C6.59474 10.0648 6.78787 10.279 7.03616 10.3343L7.36033 10.4103C7.89826 9.39437 8.20176 8.39914 8.20176 7.41771C8.20176 6.53306 8.08451 5.6553 8.0707 4.75683C8.0707 4.35597 8.22243 3.98967 8.47071 3.7063C8.71903 3.99657 8.87077 4.35597 8.87077 4.75683C8.87077 5.6553 8.7397 6.53995 8.7397 7.41771C8.7397 8.39222 9.04316 9.39437 9.58114 10.4103L9.90531 10.3343C10.1536 10.279 10.3467 10.0648 10.3467 9.81595C10.3467 9.54641 10.0984 9.27686 9.80875 9.27686L9.67769 9.29759L9.94667 7.13432C10.0777 6.04235 10.7123 4.9849 11.6709 4.50802V12.2142H9.89149C9.76046 12.9399 9.37422 13.5965 8.80177 13.9973C8.67074 14.0941 8.55349 14.2116 8.47764 14.3637C8.38798 14.2047 8.27072 14.0941 8.13965 13.9973ZM6.11195 9.55333C6.18783 9.26302 6.40164 9.01424 6.66373 8.86217L6.44989 7.07903C6.37404 6.52614 6.14643 6.02851 5.80159 5.62073V9.54641H6.11195V9.55333ZM7.01545 11.6751C7.01545 11.4056 7.05686 11.1567 7.112 10.908L6.86372 10.8527C6.49819 10.7352 6.21542 10.4518 6.11887 10.0855H5.81537V11.6751H7.01545ZM8.19484 11.6751C8.19484 11.3503 7.94655 11.06 7.62239 11.0254C7.56724 11.2328 7.52584 11.447 7.52584 11.6751H8.19484ZM8.19484 12.2142H7.60172C7.69827 12.6358 7.90519 13.0159 8.19484 13.3477V12.2142ZM9.03628 10.5486C8.8087 10.1269 8.59489 9.68464 8.46382 9.22849C8.33279 9.69156 8.11899 10.1269 7.89137 10.5486C8.11899 10.6039 8.31209 10.7559 8.46382 10.9287C8.61556 10.7559 8.8087 10.6039 9.03628 10.5486ZM9.40181 11.6751C9.40181 11.447 9.36044 11.2328 9.30526 11.0254C8.98109 11.0669 8.73281 11.3503 8.73281 11.6751H9.40181ZM9.32596 12.2142H8.73281V13.3477C9.0225 13.0159 9.22941 12.6358 9.32596 12.2142ZM11.1261 11.6751V10.0855H10.8226C10.726 10.4518 10.4433 10.7352 10.0777 10.8527L9.82942 10.908C9.8846 11.1567 9.92601 11.4056 9.92601 11.6751H11.1261ZM11.1261 9.55333V5.62765C10.7812 6.02851 10.5329 6.52614 10.4778 7.08595L10.264 8.86909C10.5329 9.02113 10.7399 9.26994 10.8157 9.56021H11.1261V9.55333Z" fill="#1A1A1D"/>
<path d="M26.6343 1.37036C30.0671 1.37036 31.9758 1.37051 33.2222 2.60181C34.4683 3.83311 34.4683 5.71738 34.4683 9.10962C34.4683 12.5019 34.4683 14.3861 33.2222 15.6174C31.9758 16.8487 30.0671 16.8489 26.6343 16.8489C23.2014 16.8489 21.2928 16.8487 20.0464 15.6174C18.8002 14.3861 18.8003 12.5008 18.8003 9.10962C18.8003 5.71848 18.8002 3.83311 20.0464 2.60181C21.2928 1.37051 23.2014 1.37036 26.6343 1.37036ZM26.7935 5.3147C25.6789 5.31479 24.7725 5.65722 24.0737 6.34106C23.3916 7.02497 23.0504 7.91554 23.0503 9.01294C23.0503 10.1106 23.3915 11.0017 24.0737 11.6858C24.7725 12.3696 25.6789 12.7121 26.7935 12.7122C27.6088 12.7122 28.3165 12.5292 28.9155 12.1633C29.531 11.7975 29.9473 11.2805 30.1636 10.6125L28.7905 10.1584C28.6075 10.5879 28.3411 10.9228 27.9917 11.1614C27.659 11.3839 27.2592 11.4954 26.7935 11.4954C26.178 11.4953 25.6702 11.3198 25.271 10.97C24.8719 10.6201 24.6306 10.135 24.5474 9.51489H27.7427V8.36938H24.5728C24.6892 7.7967 24.9391 7.35062 25.3218 7.03247C25.7043 6.69879 26.1949 6.53158 26.7935 6.53149C27.2593 6.53149 27.6589 6.65134 27.9917 6.88989C28.3411 7.11262 28.6075 7.4389 28.7905 7.86841L30.1636 7.41431C29.9473 6.74634 29.5311 6.22933 28.9155 5.86353C28.3165 5.49767 27.6088 5.3147 26.7935 5.3147Z" fill="#1A1A1D"/>
<path d="M45.9393 13.8283C48.648 13.8283 50.5027 11.9236 50.5027 9.12689C50.5027 6.28199 48.6969 4.42554 45.9393 4.42554C43.2301 4.42554 41.3999 6.33021 41.3999 9.12689C41.3999 11.9718 43.2057 13.8283 45.9393 13.8283ZM45.9393 12.2129C44.3527 12.2129 43.3034 11.0074 43.3034 9.12689C43.3034 7.24635 44.3527 6.04087 45.9393 6.04087C47.5255 6.04087 48.5748 7.24635 48.5748 9.12689C48.5748 11.0074 47.5255 12.2129 45.9393 12.2129Z" fill="#1A1A1D"/>
<path d="M55.1341 13.8287C56.7691 13.8287 58.0629 13.0331 58.4777 11.6588L56.8179 11.1525C56.5251 11.924 55.9394 12.3821 55.1097 12.3821C53.9383 12.3821 53.2062 11.4901 53.2062 10.0917C53.2062 8.69337 53.9383 7.80129 55.1097 7.80129C55.9394 7.80129 56.5251 8.25938 56.7935 9.03088L58.4777 8.52457C58.0629 7.15034 56.7691 6.35474 55.1341 6.35474C52.9134 6.35474 51.4004 7.84951 51.4004 10.0917C51.4004 12.3339 52.9134 13.8287 55.1341 13.8287Z" fill="#1A1A1D"/>
<path d="M60.717 10.6462H66.1593C66.2325 10.4051 66.2325 10.2605 66.2325 10.0917C66.2325 7.8254 64.8171 6.35474 62.6452 6.35474C60.4241 6.35474 58.96 7.87362 58.96 10.0917C58.96 12.2374 60.2533 13.8287 62.7672 13.8287C64.2314 13.8287 65.2808 13.2983 65.9397 12.5509L64.8415 11.5142C64.4023 12.0205 63.719 12.3821 62.7672 12.3821C61.6199 12.3821 60.8878 11.7311 60.717 10.6462ZM62.6452 7.75308C63.597 7.75308 64.2558 8.33171 64.4511 9.36843H60.7414C60.9366 8.35582 61.6199 7.75308 62.6452 7.75308Z" fill="#1A1A1D"/>
<path d="M73.8648 6.47461H67.7392V10.1634C67.7392 11.9234 67.5684 12.1403 66.9827 12.1403H66.5679V13.7075C66.7631 13.7316 67.0559 13.7557 67.3244 13.7557C68.8866 13.7557 69.4722 12.9359 69.4722 10.3562V8.04171H72.1078V13.7075H73.8648V6.47461Z" fill="#1A1A1D"/>
<path d="M81.6693 6.47461H78.228C76.4954 6.47461 75.3729 7.41486 75.3729 8.86146C75.3729 9.82582 75.8853 10.5491 76.7882 10.9108L74.9336 13.7075H76.8859L78.4965 11.1519H79.9366V13.7075H81.6693V6.47461ZM78.4233 9.84992C77.6179 9.84992 77.1543 9.4883 77.1543 8.86146C77.1543 8.25872 77.6179 7.87295 78.4233 7.87295H79.9366V9.84992H78.4233Z" fill="#1A1A1D"/>
</svg>
