<svg width="100" height="100" viewBox="0 0 100 100" fill="none" xmlns="http://www.w3.org/2000/svg">
<path d="M1 64.9351L8.44681 59.2597C9.00908 59.7686 9.67685 60.4189 10.4256 61.2013M20.6596 96C23.3404 94.5065 26.766 90.7727 27.9574 88.9805C27.4189 87.6028 26.8483 86.2577 26.253 84.9481M26.253 84.9481L30.0426 81.8117M26.253 84.9481C21.2862 74.0213 14.5981 65.561 10.4256 61.2013M30.0426 81.8117C28.5035 76.8333 23.5489 65.0844 16.0426 57.9156M30.0426 81.8117L32.7234 81.3636M16.0426 57.9156C13.7787 58.3935 11.3547 60.3052 10.4256 61.2013M16.0426 57.9156C19.3191 57.0195 23.6383 55.2273 25.5745 49.7013C27.5106 44.1753 29.2979 33.7208 39.1277 35.3637M39.1277 35.3637C37.6979 37.7533 36.1489 41.039 35.5532 42.3831C35.2553 43.2792 34.8383 45.7584 35.5532 48.5065C36.2681 51.2545 37.3404 54.7294 37.7872 56.1234C38.383 57.5173 40.0809 60.2454 42.1064 60.0065C44.6383 59.7078 45.9787 58.513 46.1277 54.3311C46.2766 50.1493 44.9362 46.4156 47.9149 43.8766C49.1064 42.9208 49.9007 42.184 50.1489 41.935C51.5887 41.9848 55.5404 41.9948 59.8298 41.6363C65.1915 41.1883 72.9362 42.2337 80.5319 45.6688C80.7924 45.7994 81.0331 45.9498 81.254 46.1169M39.1277 35.3637L40.4681 32.974C41.3617 31.7792 43.7447 29.1805 46.1277 28.3441C49.1064 27.2987 57.8936 24.461 62.8085 20.1299M79.9362 53.8831C76.3617 53.5844 66.6808 53.1363 65.0426 52.8376M79.9362 53.8831C81.5677 55.3828 81.9581 60.6161 77.2553 61.9713M79.9362 53.8831C83.6644 53.0523 84.0641 48.2418 81.254 46.1169M75.766 62.2467C72.1915 62.1272 66.7305 61.2013 64.4468 60.7532M75.766 62.2467C76.3111 62.1947 76.8064 62.1006 77.2553 61.9713M75.766 62.2467L77.2553 61.9713M77.2553 61.9713C77.7518 63.6064 77.8808 67.235 74.4255 68.6688M74.4255 68.6688C71.7447 68.6688 66.234 67.922 65.3404 67.6233M74.4255 68.6688C74.3759 71.0086 72.6085 75.6584 65.9362 75.5389M65.9362 75.5389C65.7872 73.2987 62.6596 67.7727 58.6383 70.3117M65.9362 75.5389C65.9362 77.7792 65.9362 78.974 64.4468 80.3181C62.9574 81.6623 59.8298 81.513 58.6383 80.3181M58.6383 70.3117C58.1915 72.4026 58.1915 78.3766 58.6383 80.3181M58.6383 70.3117C55.5106 66.2792 51.4894 67.1753 49.5532 69.2662C49.1205 69.7335 48.8217 70.4095 48.6236 71.2078M58.6383 80.3181C58.1915 81.3138 56.583 83.2753 53.7234 83.1558C50.8638 83.0363 49.2553 81.2143 48.8085 80.3181M32.7234 81.3636C31.9787 79.2727 30.9362 74.613 32.7234 72.7013C34.9574 70.3117 37.3404 71.0584 38.234 73.7467C38.4525 74.4038 38.5908 75.1322 38.7078 75.8731M32.7234 81.3636C33.1702 84.2013 39.5688 84.3506 39.795 80.3181M48.8085 80.3181C46.8723 82.8571 43.1489 82.4091 40.9149 81.3636C40.4283 81.1359 40.0688 80.7735 39.795 80.3181M48.8085 80.3181C48.4615 78.2306 47.935 73.9816 48.6236 71.2078M38.7078 75.8731C38.6809 72.7013 40.0213 67.6233 44.1915 67.6233C47.5277 67.6233 48.5363 70.013 48.6236 71.2078M38.7078 75.8731C38.9651 77.5033 39.1191 79.194 39.795 80.3181M62.8085 20.1299C65.0426 20.8766 79.0426 29.6883 83.9574 39.3961M62.8085 20.1299C63.5503 19.289 64.8996 17.7885 66.0807 16.5454M83.9574 39.3961C82.4085 41.7857 81.5097 44.8723 81.254 46.1169M83.9574 39.3961L88.5745 33.4221C87.4823 30.2359 81.783 22.0714 67.7234 14.9026C67.3059 15.2794 66.7178 15.875 66.0807 16.5454M66.0807 16.5454C65.1389 15.7987 63.166 13.9467 62.8085 12.513C62.4511 11.0792 67.6241 6.24026 70.2553 4M86.0426 37.1558C87.1348 38.1515 89.6468 40.1428 90.9574 40.1428C92.5957 40.1428 96.4681 34.3182 99 33.4221" stroke="black" stroke-width="1.5" stroke-linecap="round"/>
</svg>
