<svg aria-hidden="true" style="position: absolute; width: 0; height: 0; overflow: hidden;" version="1.1" xmlns="http://www.w3.org/2000/svg" xmlns:xlink="http://www.w3.org/1999/xlink">
  <defs>
        <symbol id="icon-sign" viewBox="0 0 140 32">
        <path fill="none" stroke="#8897b4" style="stroke: var(--color1, #8897b4)" stroke-linejoin="miter" stroke-linecap="butt" stroke-miterlimit="4" stroke-width="2" d="M1.742-2l17.258 32h4.774l14.452-27.151h6.516l14.452 27.151h3.806"></path>
        <path fill="none" stroke="#8897b4" style="stroke: var(--color1, #8897b4)" stroke-linejoin="miter" stroke-linecap="butt" stroke-miterlimit="4" stroke-width="2" d="M66 33l16-31h6l19 28h5l19-28h7v29"></path>
    </symbol>

    <symbol id="icon-handshake" viewBox="0 0 32 32">
        <path stroke-linejoin="miter" stroke-linecap="round" stroke-miterlimit="4" stroke-width="0.48" d="M0.32 20.779l2.383-1.816c0.18 0.163 0.394 0.371 0.633 0.621M6.611 30.72c0.858-0.478 1.954-1.673 2.335-2.246-0.172-0.441-0.355-0.871-0.545-1.29M8.401 27.183l1.213-1.004M8.401 27.183c-1.589-3.497-3.73-6.204-5.065-7.599M9.614 26.18c-0.492-1.593-2.078-5.353-4.48-7.647M9.614 26.18l0.858-0.143M5.134 18.533c-0.724 0.153-1.5 0.765-1.797 1.051M5.134 18.533c1.048-0.287 2.431-0.86 3.050-2.629s1.191-5.114 4.337-4.588M12.521 11.316c-0.458 0.765-0.953 1.816-1.144 2.246-0.095 0.287-0.229 1.080 0 1.96s0.572 1.991 0.715 2.437c0.191 0.446 0.734 1.319 1.382 1.243 0.81-0.096 1.239-0.478 1.287-1.816s-0.381-2.533 0.572-3.345c0.381-0.306 0.635-0.542 0.715-0.621 0.461 0.016 1.725 0.019 3.098-0.096 1.716-0.143 4.194 0.191 6.625 1.29 0.083 0.042 0.16 0.090 0.231 0.143M12.521 11.316l0.429-0.765c0.286-0.382 1.049-1.214 1.811-1.482 0.953-0.335 3.765-1.243 5.338-2.629M25.58 17.243c-1.144-0.096-4.242-0.239-4.766-0.335M25.58 17.243c0.522 0.48 0.647 2.155-0.858 2.588M25.58 17.243c1.193-0.266 1.321-1.805 0.422-2.485M24.245 19.919c-1.144-0.038-2.891-0.335-3.622-0.478M24.245 19.919c0.174-0.017 0.333-0.047 0.477-0.088M24.245 19.919l0.477-0.088M24.722 19.831c0.159 0.523 0.2 1.684-0.906 2.143M23.816 21.974c-0.858 0-2.621-0.239-2.907-0.335M23.816 21.974c-0.016 0.749-0.581 2.237-2.717 2.198M21.1 24.172c-0.048-0.717-1.049-2.485-2.335-1.673M21.1 24.172c0 0.717 0 1.099-0.477 1.529s-1.477 0.382-1.859 0M18.764 22.5c-0.143 0.669-0.143 2.581 0 3.202M18.764 22.5c-1.001-1.29-2.288-1.004-2.907-0.335-0.138 0.15-0.234 0.366-0.297 0.621M18.764 25.702c-0.143 0.319-0.658 0.946-1.573 0.908s-1.43-0.621-1.573-0.908M10.472 26.036c-0.238-0.669-0.572-2.16 0-2.772 0.715-0.765 1.477-0.526 1.763 0.335 0.070 0.21 0.114 0.443 0.152 0.68M10.472 26.036c0.143 0.908 2.191 0.956 2.263-0.335M15.619 25.702c-0.62 0.812-1.811 0.669-2.526 0.335-0.156-0.073-0.271-0.189-0.358-0.335M15.619 25.702c-0.111-0.668-0.28-2.028-0.059-2.915M12.386 24.279c-0.009-1.015 0.42-2.64 1.755-2.64 1.068 0 1.39 0.765 1.418 1.147M12.386 24.279c0.082 0.522 0.132 1.063 0.348 1.422M20.099 6.442c0.715 0.239 5.195 3.059 6.768 6.165M20.099 6.442c0.237-0.269 0.669-0.749 1.047-1.147M26.866 12.607c-0.496 0.765-0.783 1.752-0.865 2.151M26.866 12.607l1.477-1.912c-0.349-1.020-2.173-3.632-6.672-5.926-0.134 0.121-0.322 0.311-0.526 0.526M21.146 5.295c-0.301-0.239-0.933-0.832-1.047-1.29s1.541-2.007 2.383-2.724M27.534 11.89c0.349 0.319 1.153 0.956 1.573 0.956 0.524 0 1.763-1.864 2.574-2.151"></path>
    </symbol>

    <symbol id="icon-location" viewBox="0 0 32 32">
        <path d="M16 3.143c4.242 0 8 2.669 8 7.763 0 1.067-0.566 2.628-0.849 3.275l-7.151 14.677-7.151-14.677c-0.283-0.647-0.849-2.208-0.849-3.275 0-5.094 3.758-7.763 8-7.763zM16 7.715c-1.893 0-3.43 1.535-3.43 3.428s1.536 3.428 3.43 3.428c1.893-0 3.428-1.535 3.428-3.428s-1.535-3.428-3.428-3.428z"></path>
    </symbol>

    <symbol id="icon-clock" viewBox="0 0 32 32">
        <path d="M16 7c4.971 0 9 4.029 9 9s-4.029 9-9 9c-4.971 0-9-4.029-9-9s4.029-9 9-9zM16.5 10.25c-0.414 0-0.75 0.336-0.75 0.75v5.25c0 0.298 0.176 0.568 0.449 0.687l4 1.75c0.379 0.166 0.822-0.007 0.988-0.387s-0.007-0.822-0.387-0.988l-3.551-1.555v-4.758c0-0.414-0.336-0.75-0.75-0.75z"></path>
    </symbol>

    <symbol id="icon-email" viewBox="0 0 32 32">
        <path d="M5.333 22c0 1.1 0.96 2 2.133 2h17.068c1.173-0 2.133-0.9 2.133-2v-12c0-0.245-0.050-0.478-0.137-0.695l-10.035 8.782c-0.283 0.247-0.705 0.247-0.988 0l-10.038-8.783c-0.087 0.217-0.135 0.451-0.135 0.695v12zM16 16.526l9.495-8.309c-0.289-0.138-0.616-0.217-0.961-0.217h-17.068c-0.346 0-0.673 0.079-0.962 0.217l9.496 8.309z"></path>
    </symbol>

    <symbol id="icon-plus" viewBox="0 0 32 32">
        <path stroke-linejoin="miter" stroke-linecap="butt" stroke-miterlimit="4" stroke-width="2.6667" d="M0 16h32M16 32v-32"></path>
    </symbol>

    <symbol id="icon-arrow" viewBox="0 0 32 32">
        <path d="M15.59 28.077l8.546-8.547-0.943-0.943-6.936 6.938v-21.525h-1.333v21.525l-6.938-6.938-0.943 0.943 8.547 8.547z"></path>
    </symbol>

    <symbol id="icon-burger-hover" viewBox="0 0 32 32">
        <path d="M30.698 9.333v2.667h-29.333v-2.667h29.333zM30.635 20v2.667h-29.333v-2.667h29.333zM30.635 14.667v2.667h-29.333v-2.667h29.333z"></path>
    </symbol>

    <symbol id="icon-burger-expand" viewBox="0 0 32 32">
        <path d="M31.365 6.667v2.667h-29.333v-2.667h29.333zM31.302 22.667v2.667h-29.333v-2.667h29.333zM31.302 14.667v2.667h-29.333v-2.667h29.333z"></path>
    </symbol>

    <symbol id="icon-phone" viewBox="0 0 32 32">
        <path d="M10.333 6.432c-1.253-1.847-4.452 2.691-4.329 4.967 0.181 3.293 2.187 6.849 4.967 9.63s6.337 4.786 9.63 4.967c2.273 0.126 6.815-3.073 4.967-4.329 0 0-0.012-0.008-0.016-0.012l-4.215-2.615c-0.055-0.035-0.532-0.283-0.599-0.296-1.079-0.205-2.115 0.866-3.305 1.677-0.15 0.103-0.398 0.19-0.556 0.099-1.264-0.725-2.040-1.379-3.033-2.371s-1.646-1.765-2.371-3.033c-0.091-0.157-0.001-0.406 0.098-0.556 0.811-1.193 1.883-2.225 1.678-3.305-0.012-0.063-0.264-0.544-0.296-0.599l-2.611-4.211c-0.001-0.001-0.008-0.012-0.012-0.016z"></path>
    </symbol>

    <symbol id="icon-pdf" viewBox="0 0 32 32">
        <path d="M15.283 0.499c-0.561-0.284-1.174-0.331-1.767-0.232-1.365 0.229-2.151 1.179-2.506 2.253-0.33 0.997-0.333 2.178-0.215 3.288 0.231 2.168 0.989 4.607 1.631 6.255-0.772 2.163-1.864 4.903-3.168 7.598-0.485 1.002-0.995 1.984-1.52 2.921-1.891 0.885-3.363 1.762-4.482 2.6-1.617 1.212-2.627 2.434-2.987 3.577-0.183 0.582-0.228 1.256 0.057 1.879 0.303 0.66 0.886 1.058 1.522 1.189 1.158 0.236 2.368-0.379 3.299-1.302 1.613-1.447 3.126-3.559 4.479-5.874 0.623-0.275 1.297-0.553 2.025-0.832 3.465-1.242 6.129-1.985 8.232-2.431 0.711 0.484 1.422 0.902 2.122 1.254 1.705 0.856 3.353 1.342 4.742 1.522 0.693 0.090 1.347 0.107 1.926 0.043 0.555-0.061 1.151-0.209 1.639-0.535 0.639-0.428 1.198-1.031 1.395-1.819 0.21-0.845-0.059-1.639-0.575-2.232-0.939-1.077-2.703-1.57-4.728-1.57-1.417 0-3.193 0.011-5.892 0.497-1.924-1.504-3.802-3.646-5.223-6.603 0.128-0.377 0.245-0.732 0.349-1.060 0.543-1.638 1.183-4.112 1.281-6.172 0.047-0.999-0.018-2.121-0.465-3.004-0.239-0.472-0.613-0.925-1.173-1.21zM26.405 20.717c1.561 0 2.347 0.357 2.629 0.576-0.045 0.043-0.108 0.1-0.202 0.163-0.014 0.006-0.141 0.066-0.449 0.1-0.322 0.035-0.758 0.033-1.292-0.036-0.788-0.102-1.738-0.343-2.771-0.758 0.812-0.046 1.488-0.044 2.085-0.044zM14.074 15.266c0.97 1.562 2.063 2.886 3.21 3.997-1.633 0.423-3.523 0.993-5.729 1.763 0.033-0.069 0.070-0.136 0.103-0.205 0.919-1.899 1.736-3.817 2.417-5.556zM14.077 2.913c0.122 0.242 0.222 0.782 0.18 1.673-0.043 0.903-0.221 1.946-0.452 2.956-0.161-0.686-0.289-1.373-0.358-2.017-0.103-0.972-0.059-1.705 0.094-2.167 0.127-0.384 0.261-0.435 0.415-0.461 0.046-0.008 0.081-0.007 0.105-0.008 0.004 0.007 0.011 0.014 0.016 0.023z"></path>
    </symbol>

    <symbol id="icon-telegram" viewBox="0 0 32 32">
        <path d="M13.13 19.181l-0.441 5.584c0.631 0 0.904-0.244 1.232-0.537l2.959-2.545 6.131 4.041c1.125 0.564 1.917 0.267 2.22-0.931l4.026-16.973c0.357-1.496-0.601-2.081-1.697-1.714l-23.656 8.151c-1.614 0.564-1.59 1.374-0.274 1.741l6.048 1.693 14.048-7.911c0.661-0.394 1.262-0.176 0.768 0.218l-11.364 9.183z"></path>
    </symbol>

    <symbol id="icon-whatsapp" viewBox="0 0 32 32">
        <path d="M16.051 4c3.196 0.002 6.196 1.241 8.452 3.488s3.498 5.235 3.497 8.413c-0.003 6.557-5.364 11.893-11.949 11.893h-0.005c-2-0.001-3.966-0.5-5.711-1.448l-6.335 1.654 1.695-6.163c-1.045-1.803-1.596-3.85-1.595-5.945 0.003-6.557 5.364-11.892 11.951-11.892zM11.82 10c-0.197 0-0.516 0.080-0.786 0.398s-1.034 1.089-1.034 2.655c0 1.566 1.058 3.078 1.206 3.292 0.148 0.212 2.042 3.53 5.043 4.806 2.494 1.060 3.002 0.849 3.543 0.796s1.747-0.77 1.993-1.513c0.246-0.743 0.246-1.38 0.172-1.513s-0.271-0.212-0.566-0.371c-0.296-0.159-1.746-0.93-2.017-1.036s-0.467-0.159-0.664 0.16c-0.197 0.318-0.763 1.035-0.935 1.247s-0.344 0.239-0.639 0.079c-0.295-0.16-1.247-0.495-2.375-1.579-0.877-0.843-1.469-1.885-1.642-2.204s-0.019-0.491 0.129-0.65c0.133-0.143 0.295-0.372 0.443-0.557s0.197-0.319 0.296-0.531c0.098-0.212 0.049-0.398-0.025-0.557s-0.648-1.734-0.91-2.363l-0.083-0.176c-0.196-0.357-0.397-0.366-0.581-0.374-0.172-0.008-0.37-0.008-0.566-0.008z"></path>
    </symbol>

    <symbol id="icon-inst" viewBox="0 0 32 32">
        <path d="M16.004 4c3.127 0 3.529 0.014 4.772 0.073 1.27 0.056 2.159 0.263 2.945 0.566 0.828 0.312 1.582 0.804 2.206 1.435l-0.345 0.352 0.352-0.345 0.229 0.237c0.526 0.574 0.934 1.241 1.211 1.973 0.304 0.783 0.512 1.677 0.568 2.947 0.054 1.24 0.059 1.642 0.059 4.766 0 3.127-0.013 3.526-0.068 4.764-0.056 1.271-0.264 2.161-0.568 2.948-0.648 1.676-1.973 3.002-3.65 3.65-0.784 0.305-1.678 0.512-2.949 0.568-1.238 0.055-1.638 0.068-4.766 0.068s-3.527-0.013-4.766-0.068c-1.271-0.056-2.16-0.263-2.947-0.566-0.726-0.274-1.396-0.685-1.97-1.208l-0.237-0.228 0.346-0.352-0.352 0.345c-0.631-0.623-1.123-1.373-1.44-2.21-0.304-0.783-0.512-1.677-0.568-2.947-0.054-1.238-0.068-1.638-0.068-4.764s0.014-3.528 0.073-4.771c0.056-1.269 0.263-2.158 0.566-2.944 0.313-0.829 0.805-1.585 1.438-2.21l-0.003 0.004 0.353 0.344-0.346-0.35-0.004 0.003c0.625-0.639 1.378-1.126 2.215-1.443 0.783-0.304 1.678-0.512 2.948-0.568 1.238-0.054 1.638-0.068 4.764-0.068zM16 10.316c-3.138 0-5.684 2.546-5.684 5.684s2.546 5.683 5.684 5.684c3.138 0 5.685-2.545 5.685-5.684s-2.547-5.684-5.685-5.684zM22.948 6.526c-1.395 0-2.526 1.131-2.526 2.526s1.131 2.527 2.526 2.527c1.395 0 2.527-1.132 2.527-2.527s-1.132-2.526-2.527-2.526z"></path>
    </symbol>

    <symbol id="icon-facebook" viewBox="0 0 32 32">
        <path d="M20.476 7.985h2.191v-3.816c-0.378-0.052-1.678-0.169-3.192-0.169-3.159 0-5.323 1.987-5.323 5.639v3.361h-3.486v4.266h3.486v10.734h4.274v-10.733h3.345l0.531-4.266h-3.877v-2.939c0.001-1.233 0.333-2.077 2.051-2.077z"></path>
    </symbol>

    <symbol id="icon-youtube" viewBox="0 0 27 32">
        <path d="M13.719 4.286c0.059 0 5.073 0.033 8.394 0.272l0.044 0.004c0.037 0.005 0.079 0.009 0.125 0.014 0.551 0.062 1.698 0.193 2.71 1.259 0.875 0.907 1.087 2.689 1.108 2.889l0.001 0.011c0.008 0.087 0.185 2.070 0.185 4.061v1.863c0 1.992-0.178 3.976-0.185 4.061l-0.002 0.026c-0.025 0.196-0.266 1.94-1.099 2.837-1 1.090-2.129 1.209-2.671 1.266-0.052 0.005-0.1 0.010-0.142 0.016l-0.044 0.004c-3.324 0.239-8.344 0.272-8.394 0.272h-0.016c-0.262-0.004-6.273-0.093-8.191-0.273l-0.058-0.008c-0.060-0.010-0.149-0.021-0.251-0.032-0.647-0.073-1.849-0.21-2.8-1.24-0.87-0.906-1.082-2.654-1.104-2.854l-0.001-0.014c-0.008-0.088-0.185-2.071-0.185-4.061v-1.863c0-1.991 0.177-3.975 0.185-4.061l0.002-0.026c0.025-0.196 0.266-1.94 1.099-2.837 1.014-1.105 2.149-1.235 2.694-1.297 0.043-0.005 0.082-0.010 0.117-0.014l0.045-0.004c3.354-0.239 8.374-0.272 8.424-0.272h0.009zM11.876 9.954c-0.336-0.168-0.734-0.163-1.064 0.016s-0.527 0.495-0.527 0.845v5.799c0 0.349 0.196 0.664 0.523 0.843 0.171 0.093 0.361 0.141 0.551 0.141 0.174-0 0.349-0.039 0.509-0.118l5.851-2.875c0.347-0.171 0.564-0.5 0.566-0.86s-0.213-0.692-0.559-0.865l-5.85-2.924z"></path>
    </symbol>
    
    <symbol id="icon-tiktok" viewBox="0 0 27 32">
        <path d="M21.438 6.52c-0.16-0.088-0.316-0.184-0.467-0.288-0.439-0.308-0.842-0.67-1.2-1.080-0.895-1.085-1.229-2.185-1.352-2.956h0.005c-0.103-0.64-0.060-1.053-0.054-1.053h-4.076v16.697c0 0.224 0 0.446-0.009 0.665 0 0.027-0.002 0.052-0.004 0.082 0 0.012 0 0.025-0.002 0.037 0 0.003 0 0.006 0 0.009-0.043 0.599-0.224 1.178-0.528 1.685s-0.72 0.928-1.213 1.225c-0.514 0.31-1.095 0.472-1.687 0.471-1.899 0-3.438-1.641-3.438-3.666s1.539-3.666 3.438-3.666c0.36-0 0.717 0.060 1.059 0.178l0.005-4.397c-1.038-0.142-2.092-0.055-3.096 0.257s-1.937 0.84-2.738 1.552c-0.703 0.647-1.293 1.418-1.745 2.28-0.172 0.314-0.821 1.577-0.9 3.627-0.049 1.163 0.28 2.369 0.438 2.867v0.011c0.099 0.293 0.482 1.294 1.107 2.138 0.504 0.677 1.099 1.271 1.766 1.765v-0.010l0.010 0.010c1.973 1.421 4.161 1.327 4.161 1.327 0.379-0.016 1.648 0 3.088-0.723 1.598-0.802 2.508-1.997 2.508-1.997 0.581-0.714 1.043-1.527 1.367-2.406 0.369-1.027 0.492-2.259 0.492-2.751v-8.858c0.049 0.031 0.708 0.493 0.708 0.493s0.949 0.644 2.429 1.064c1.062 0.299 2.493 0.361 2.493 0.361v-4.287c-0.501 0.058-1.519-0.11-2.562-0.66z"></path>
    </symbol>

    <symbol id="icon-star" viewBox="0 0 32 32">
        <path d="M14.325 22.243l0.216-4.729-3.974 2.573-1.232-2.126 4.221-2.157-4.221-2.157 1.232-2.157 3.974 2.573-0.216-4.729h2.434l-0.216 4.729 3.975-2.573 1.232 2.157-4.221 2.157 4.221 2.157-1.232 2.126-3.975-2.573 0.216 4.729h-2.434z"></path>
    </symbol>

    <symbol id="icon-close" viewBox="0 0 32 32">
        <path d="M0 2.382l13.125 13.125-13.125 13.125 2.382 2.382 13.125-13.125 13.125 13.125 2.382-2.382-13.125-13.125 13.125-13.125-2.382-2.382-13.125 13.125-13.125-13.125-2.382 2.382z"></path>
    </symbol>
  </defs>
</svg>
